<svg width="16" height="12" viewBox="0 0 16 12" fill="none" xmlns="http://www.w3.org/2000/svg">
<path d="M13.9998 0.399902H1.9998C1.1498 0.399902 0.424805 1.0999 0.424805 1.9749V10.0749C0.424805 10.9249 1.1248 11.6499 1.9998 11.6499H13.9998C14.8498 11.6499 15.5748 10.9499 15.5748 10.0749V1.9499C15.5748 1.0999 14.8498 0.399902 13.9998 0.399902ZM13.9998 1.5249C14.0248 1.5249 14.0498 1.5249 14.0748 1.5249L7.9998 5.4249L1.9248 1.5249C1.9498 1.5249 1.9748 1.5249 1.9998 1.5249H13.9998ZM13.9998 10.4749H1.9998C1.7498 10.4749 1.5498 10.2749 1.5498 10.0249V2.6249L7.3998 6.3749C7.5748 6.4999 7.7748 6.5499 7.9748 6.5499C8.1748 6.5499 8.3748 6.4999 8.5498 6.3749L14.3998 2.6249V10.0499C14.4498 10.2999 14.2498 10.4749 13.9998 10.4749Z" fill="#6B7280"/>
</svg>
